<svg xmlns="http://www.w3.org/2000/svg" xmlns:xlink="http://www.w3.org/1999/xlink" width="512" height="12825" viewBox="0 0 512 12825"><svg viewBox="0 0 490 490" width="490" height="490" id="002-cogwheel" y="0"><path d="M408.5 151.9H386c-3.7-19.8-11.4-38.2-22.3-54.2l15.8-15.8c5.9-5.9 5.9-15.5 0-21.4L363 44c-5.9-5.9-15.5-5.9-21.4 0l-15.7 15.7c-16-11-34.4-18.8-54.3-22.6v-22c0-8.3-6.8-15.1-15.1-15.1h-23.3c-8.3 0-15.1 6.8-15.1 15.1v22.1c-19.8 3.8-38.2 11.6-54.3 22.6l-15.7-15.7c-5.9-5.9-15.5-5.9-21.4 0l-16.5 16.5c-5.9 5.9-5.9 15.5 0 21.4L126 97.8c-10.9 16-18.6 34.4-22.3 54.2H81.3c-8.3 0-15.1 6.8-15.1 15.1v23.3c0 8.3 6.8 15.1 15.1 15.1H104c3.8 19.7 11.6 37.9 22.5 53.8l-16.2 16.2c-5.9 5.9-5.9 15.5 0 21.4l16.5 16.5c5.9 5.9 15.5 5.9 21.4 0l16.3-16.3c5.6 3.8 11.4 7.2 17.5 10.2v-53.6c-21.7-18-35.4-45.2-35.4-75.6 0-54.3 44-98.4 98.4-98.4 54.3 0 98.4 44 98.4 98.4 0 30.4-13.8 57.6-35.4 75.6v53.6c6.1-3 12-6.4 17.5-10.2l16.3 16.3c5.9 5.9 15.5 5.9 21.4 0l16.5-16.5c5.9-5.9 5.9-15.5 0-21.4l-16.2-16.2c10.9-15.9 18.7-34.1 22.5-53.8h22.7c8.3 0 15.1-6.8 15.1-15.1V167c-.2-8.3-7-15.1-15.3-15.1z"></path><path d="M283.8 124.8c-2.6-1.9-6.2-.1-6.2 3.1V156c0 13.3-10.8 24.1-24.1 24.1h-17.2c-13.3 0-24.1-10.8-24.1-24.1v-28.1c0-3.2-3.6-5-6.2-3.1-16.1 11.9-26.6 31.1-26.6 52.7 0 21.2 10.1 40 25.7 52 6.9 5.3 10.9 13.4 10.9 22.1v209.6c0 15.9 13 28.8 28.9 28.8 16 0 28.9-12.9 28.9-28.8V251.5c0-8.7 4-16.8 10.9-22.1 15.6-12 25.7-30.8 25.7-52 0-21.5-10.4-40.7-26.6-52.6zm-30.5 332.7c0 4.6-3.8 8.4-8.4 8.4s-8.4-3.8-8.4-8.4V243.6c0-4.6 3.8-8.4 8.4-8.4s8.4 3.8 8.4 8.4v213.9z"></path></svg><svg viewBox="0 0 129 129" width="129" height="129" id="arrow-down" y="490"><path d="M121.3 34.6c-1.6-1.6-4.2-1.6-5.8 0l-51 51.1-51.1-51.1c-1.6-1.6-4.2-1.6-5.8 0-1.6 1.6-1.6 4.2 0 5.8l53.9 53.9c.8.8 1.8 1.2 2.9 1.2 1 0 2.1-.4 2.9-1.2l53.9-53.9c1.7-1.6 1.7-4.2.1-5.8z"></path></svg><svg viewBox="0 0 477.175 477.175" width="477.175" height="477.175" id="arrow-left" y="619"><path d="M145.188 238.575l215.5-215.5c5.3-5.3 5.3-13.8 0-19.1s-13.8-5.3-19.1 0l-225.1 225.1c-5.3 5.3-5.3 13.8 0 19.1l225.1 225c2.6 2.6 6.1 4 9.5 4s6.9-1.3 9.5-4c5.3-5.3 5.3-13.8 0-19.1l-215.4-215.5z"></path></svg><svg viewBox="0 0 477.175 477.175" width="477.175" height="477.175" id="arrow-right" y="1097"><path d="M360.731 229.075l-225.1-225.1c-5.3-5.3-13.8-5.3-19.1 0s-5.3 13.8 0 19.1l215.5 215.5-215.5 215.5c-5.3 5.3-5.3 13.8 0 19.1 2.6 2.6 6.1 4 9.5 4 3.4 0 6.9-1.3 9.5-4l225.1-225.1c5.3-5.2 5.3-13.8.1-19z"></path></svg><svg width="64" height="64" viewBox="0 0 64 64" id="arrow-up" y="1575"><path fill="#1D1D1B" d="M3.352 48.296l28.56-28.328 28.58 28.347c.397.394.917.59 1.436.59.52 0 1.04-.196 1.436-.59a2.003 2.003 0 0 0 0-2.849l-29.98-29.735c-.2-.2-.494-.375-.757-.475a2.052 2.052 0 0 0-2.166.456L.479 45.447a2.003 2.003 0 0 0 0 2.849 2.045 2.045 0 0 0 2.873 0z"></path></svg><svg viewBox="0 0 475.2 475.2" width="475.2" height="475.2" id="cancel" y="1639"><path d="M405.6 69.6C360.7 24.7 301.1 0 237.6 0s-123.1 24.7-168 69.6S0 174.1 0 237.6s24.7 123.1 69.6 168 104.5 69.6 168 69.6 123.1-24.7 168-69.6 69.6-104.5 69.6-168-24.7-123.1-69.6-168zm-19.1 316.9c-39.8 39.8-92.7 61.7-148.9 61.7s-109.1-21.9-148.9-61.7c-82.1-82.1-82.1-215.7 0-297.8C128.5 48.9 181.4 27 237.6 27s109.1 21.9 148.9 61.7c82.1 82.1 82.1 215.7 0 297.8z"></path><path d="M342.3 132.9c-5.3-5.3-13.8-5.3-19.1 0l-85.6 85.6-85.6-85.6c-5.3-5.3-13.8-5.3-19.1 0-5.3 5.3-5.3 13.8 0 19.1l85.6 85.6-85.6 85.6c-5.3 5.3-5.3 13.8 0 19.1 2.6 2.6 6.1 4 9.5 4s6.9-1.3 9.5-4l85.6-85.6 85.6 85.6c2.6 2.6 6.1 4 9.5 4 3.5 0 6.9-1.3 9.5-4 5.3-5.3 5.3-13.8 0-19.1l-85.4-85.6 85.6-85.6c5.3-5.3 5.3-13.8 0-19.1z"></path></svg><svg viewBox="0 0 26 26" width="26" height="26" id="checked" y="2115"><path d="M.3 14c-.2-.2-.3-.5-.3-.7s.1-.5.3-.7l1.4-1.4c.4-.4 1-.4 1.4 0l.1.1 5.5 5.9c.2.2.5.2.7 0L22.8 3.3h.1c.4-.4 1-.4 1.4 0l1.4 1.4c.4.4.4 1 0 1.4l-16 16.6c-.2.2-.4.3-.7.3-.3 0-.5-.1-.7-.3L.5 14.3.3 14z"></path></svg><svg viewBox="0 0 59 59" width="59" height="59" id="garbage" y="2141"><path d="M29.5 51a1 1 0 0 0 1-1V17a1 1 0 1 0-2 0v33a1 1 0 0 0 1 1zm-10 0a1 1 0 0 0 1-1V17a1 1 0 1 0-2 0v33a1 1 0 0 0 1 1zm20 0a1 1 0 0 0 1-1V17a1 1 0 1 0-2 0v33a1 1 0 0 0 1 1z"></path><path d="M52.5 6H38.456c-.11-1.25-.495-3.358-1.813-4.711C35.809.434 34.751 0 33.499 0H23.5c-1.252 0-2.31.434-3.144 1.289C19.038 2.642 18.653 4.75 18.543 6H6.5a1 1 0 1 0 0 2h2.041l1.915 46.021C10.493 55.743 11.565 59 15.364 59h28.272c3.799 0 4.871-3.257 4.907-4.958L50.459 8H52.5a1 1 0 1 0 0-2zM21.792 2.681C22.24 2.223 22.799 2 23.5 2h9.999c.701 0 1.26.223 1.708.681.805.823 1.128 2.271 1.24 3.319H20.553c.112-1.048.435-2.496 1.239-3.319zm24.752 51.298C46.538 54.288 46.4 57 43.636 57H15.364c-2.734 0-2.898-2.717-2.909-3.042L10.542 8h37.915l-1.913 45.979z"></path></svg><svg viewBox="0 0 471.701 471.701" width="471.701" height="471.701" id="heart" y="2200"><path d="M433.601 67.001c-24.7-24.7-57.4-38.2-92.3-38.2s-67.7 13.6-92.4 38.3l-12.9 12.9-13.1-13.1c-24.7-24.7-57.6-38.4-92.5-38.4-34.8 0-67.6 13.6-92.2 38.2-24.7 24.7-38.3 57.5-38.2 92.4 0 34.9 13.7 67.6 38.4 92.3l187.8 187.8c2.6 2.6 6.1 4 9.5 4 3.4 0 6.9-1.3 9.5-3.9l188.2-187.5c24.7-24.7 38.3-57.5 38.3-92.4.1-34.9-13.4-67.7-38.1-92.4zm-19.2 165.7l-178.7 178-178.3-178.3c-19.6-19.6-30.4-45.6-30.4-73.3s10.7-53.7 30.3-73.2c19.5-19.5 45.5-30.3 73.1-30.3 27.7 0 53.8 10.8 73.4 30.4l22.6 22.6c5.3 5.3 13.8 5.3 19.1 0l22.4-22.4c19.6-19.6 45.7-30.4 73.3-30.4 27.6 0 53.6 10.8 73.2 30.3 19.6 19.6 30.3 45.6 30.3 73.3.1 27.7-10.7 53.7-30.3 73.3z"></path></svg><svg viewBox="0 0 486.196 486.196" width="486.196" height="486.196" id="house" y="2672"><path d="M481.708 220.456l-228.8-204.6c-.4-.4-.8-.7-1.3-1-5-4.8-13-5-18.3-.3l-228.8 204.6c-5.6 5-6 13.5-1.1 19.1 2.7 3 6.4 4.5 10.1 4.5 3.2 0 6.4-1.1 9-3.4l41.2-36.9v238.6c0 18.7 15.2 34 34 34h72.2c17.6 0 31.9-14.3 31.9-31.9v-121.3c0-2.7 2.2-4.9 4.9-4.9h72.9c2.7 0 4.9 2.2 4.9 4.9v121.3c0 17.6 14.3 31.9 31.9 31.9h72.2c19 0 34-18.7 34-42.6v-228.7l41.2 36.9c2.6 2.3 5.8 3.4 9 3.4 3.7 0 7.4-1.5 10.1-4.5 4.8-5.6 4.3-14.1-1.2-19.1zm-86.2 66.7v145.1c0 9.7-4.8 15.6-7 15.6h-72.2c-2.7 0-4.9-2.2-4.9-4.9v-121.1c0-17.6-14.3-31.9-31.9-31.9h-72.9c-17.6 0-31.9 14.3-31.9 31.9v121.3c0 2.7-2.2 4.9-4.9 4.9h-72.2c-3.8 0-7-3.1-7-7v-262.8l151.8-135.6 153.1 136.9v107.6z"></path></svg><svg width="291.734" height="291.734" viewBox="0 0 291.734 291.734" id="icon-diag" y="3159"><path d="M59.294 152.691c.531 5.888 3.845 11.428 9.391 14.534a60.812 60.812 0 0 0 14.196 5.759c-2.731 9.217-7.749 22.556-16.681 36.842-8.484 13.577-8.585 29.961-.267 44.957 12.254 22.1 39.312 36.951 67.341 36.951 19.25 0 36.364-8.865 48.185-24.964 16.896-23.017 20.64-56.985 10.009-90.846-9.854-31.389 3.325-48.135 12.045-55.333 7.109 6.851 16.751 11.076 27.408 11.076 21.836 0 39.55-17.709 39.55-39.556s-17.714-39.551-39.55-39.551c-21.847 0-39.551 17.709-39.551 39.551 0 3.076.383 6.053 1.046 8.927-16.467 12.045-35.476 39.157-22.173 81.546 8.389 26.729 5.815 53.939-6.727 71.018-5.317 7.249-14.887 15.887-30.248 15.887-19.874 0-39.566-10.486-47.882-25.492-3.068-5.535-5.608-13.919-.318-22.385 11.814-18.911 17.727-36.558 20.531-47.344 6.566-.989 12.977-3.107 19.144-6.4 5.497-2.936 8.87-8.249 9.613-13.991 26.131-23.623 38.196-66.187 38.89-68.678 1.409-5.11-.999-10.356-5.488-12.748 3.609-31.954-8.218-48.059-15.354-54.619.544-3.07-.684-6.354-3.381-8.114l-13.113-8.57c-3.425-2.237-7.731-1.108-9.608 2.537l-6.248 12.075c-1.882 3.646-.223 7.534 3.708 8.694l14.825 4.37c3.759 1.108 8.262-.688 10.39-3.982 5.908 6.224 14.416 20.081 11.485 46.515-4.029.767-7.482 3.702-8.652 7.922-3.562 12.785-13.85 39.193-29.125 55.028-4.862-1.879-10.452-1.786-15.41.854-3.229 1.725-6.387 2.594-9.628 2.662h-.668c-3.415-.073-6.75-1.036-10.165-2.946-4.836-2.713-10.344-2.952-15.201-1.238-14.933-15.9-25.002-41.749-28.505-54.358-1.173-4.209-4.64-7.151-8.655-7.917-2.936-26.434 5.569-40.291 11.485-46.515 2.13 3.293 6.628 5.09 10.387 3.981l14.825-4.37c3.925-1.16 5.595-5.054 3.708-8.694L68.615 3.69c-1.882-3.646-6.188-4.774-9.608-2.537L45.881 9.729c-2.695 1.76-3.92 5.043-3.379 8.114-7.125 6.561-18.962 22.659-15.351 54.618-4.492 2.393-6.892 7.638-5.489 12.754.682 2.439 12.384 43.646 37.632 67.476zm171.627-76.03c8.522 0 15.445 6.913 15.445 15.452 0 8.533-6.923 15.451-15.445 15.451-8.534 0-15.452-6.918-15.452-15.451 0-8.54 6.913-15.452 15.452-15.452z"></path></svg><svg viewBox="0 0 504.123 504.123" width="504.123" height="504.123" id="icon-fix" y="3451"><circle cx="252.062" cy="252.062" r="252.062" fill="#ffd05b"></circle><path d="M408.812 148.086c-.394-2.757-1.182-5.514-1.969-7.877l-40.172 39.778-37.809-37.809-5.12-5.12 37.022-37.022c-20.086-3.545-41.354 2.363-56.714 18.117-16.542 16.542-22.055 39.385-17.329 60.652L178.806 287.114c-20.874-4.726-44.111.788-60.652 17.329-15.36 15.36-21.268 36.628-18.117 56.714l37.022-37.022 5.12 5.12 37.809 37.809-40.172 40.172c2.757.788 5.12 1.575 7.877 1.969 20.086 3.545 41.354-2.363 56.714-18.117 16.542-16.542 22.055-39.385 17.329-60.652l108.308-108.308c20.874 4.726 44.111-.788 60.652-17.329 15.359-15.359 21.267-36.627 18.116-56.713z" fill="#324a5e"></path></svg><svg viewBox="0 0 488.5 488.5" width="488.5" height="488.5" id="icon-garant" y="3956"><path d="M364.5 232.45c5.4 4.6 13.4 4.4 18.5-.7 4.9-4.9 5.3-12.5 1.2-17.8l-.2-.2c-.1-.2-.3-.4-.4-.5l-33.6-40c-1.4-1.7-2.3-3.8-2.4-6.1l-4.9-75.3c-.6-7-6.4-12.4-13.6-12.4-7 0-12.7 5.2-13.5 12v.1c0 .3 0 .6-.1.9l-5.4 82.7c-.1.5-.1 1.1-.1 1.6v.9c-.1 5 1.8 10 5.6 13.8.8.8 1.6 1.5 2.5 2.1l46.4 38.9z"></path><path d="M330.3 16.45c-69.4 0-128.4 44.9-149.7 107.1 13.8 1.6 27.2 4.6 40.1 9.1 16.9-44.1 59.7-75.5 109.6-75.5 64.7 0 117.4 52.7 117.4 117.4 0 58.6-43.1 107.2-99.3 116 .9 7.6 1.4 15.4 1.4 23.2 0 6-.3 11.9-.8 17.8 78.4-9.3 139.5-76.1 139.5-157-.1-87.2-71-158.1-158.2-158.1z"></path><path d="M303.1 290.45l-20.4-.1c-3.2-16.7-9.7-32.9-19.6-47.5l14.5-14.4c5.2-5.2 5.3-13.7.1-18.9l-14.6-14.6c-5.2-5.2-13.7-5.3-18.9-.1l-14.5 14.4c-14.6-10-30.7-16.6-47.4-19.9l.1-20.4c0-7.4-5.9-13.4-13.3-13.4l-20.6-.1c-7.4 0-13.4 5.9-13.4 13.3l-.1 20.3c-16.8 3.1-33.1 9.6-47.8 19.5L73 194.35c-5.2-5.2-13.7-5.3-18.9 0l-14.6 14.6c-5.2 5.2-5.3 13.7-.1 18.9l14 14.1c-10.1 14.6-16.8 31-20.1 47.8l-19.8-.1c-7.4 0-13.4 5.9-13.4 13.3l-.1 20.6c0 7.4 5.9 13.4 13.3 13.4l19.7.1c3.1 16.9 9.7 33.4 19.7 48.1l-13.9 13.8c-5.2 5.2-5.3 13.7-.1 18.9l14.6 14.6c5.2 5.2 13.7 5.3 18.9 0l14.1-13.6c14.7 10.1 31.1 16.8 48 20l-.1 19.7c0 7.4 5.9 13.4 13.3 13.4l20.6.1c7.4 0 13.4-5.9 13.4-13.3l.1-19.8c16.9-3.2 33.2-9.8 47.9-19.9l14 14.1c5.2 5.2 13.7 5.3 18.9.1l14.6-14.6c5.2-5.2 5.3-13.7.1-18.9l-14.2-14.2c10-14.6 16.6-30.9 19.7-47.7l20.3.1c7.4 0 13.4-5.9 13.4-13.3l.1-20.6c.1-7.6-5.9-13.6-13.3-13.6zm-96.2 72.1c-27 26.8-70.6 26.7-97.4-.3s-26.7-70.6.3-97.4 70.6-26.7 97.4.3c26.8 27 26.6 70.6-.3 97.4z"></path></svg><svg viewBox="0 0 508 508" width="508" height="508" id="icon-man" y="4445"><circle cx="254" cy="254" r="254" fill="#90dfaa"></circle><g fill="#e6e9ee"><path d="M255.2 363.2c-.4 0-.8.4-1.6.4-.4 0-.8-.4-1.6-.4h3.2z"></path><path d="M458.4 404c-46 62.8-120.8 104-204.8 104S95.2 467.2 48.8 404c36-38.4 84.8-58.8 125.6-69.2-3.6 29.2 11.6 68.4 12 67.2 15.2-35.2 66.8-38.4 66.8-38.4s51.6 2.8 67.2 38.4c.4.8 15.6-38 12-67.2 41.2 10.4 90 30.8 126 69.2z"></path></g><path d="M316.8 308c0 5.2-3.2 32.8-61.6 55.2H252c-58.4-22.4-61.6-50-61.6-55.2.4-10.4 2.8-20.8 7.2-30.4 16 18 35.2 30 56 30 20.4 0 40-11.6 56-30 4.4 9.6 7.2 20 7.2 30.4z" fill="#ffd05b"></path><path d="M288.4 372.4L275.6 398h-44l-12.8-25.6c17.6-7.6 34.8-8.8 34.8-8.8s17.6 1.2 34.8 8.8z" fill="#f1543f"></path><path d="M218 505.6c11.6 1.6 23.6 2.4 36 2.4 12 0 24-.8 36-2.4l-14-107.2h-44l-14 107.2z" fill="#ff7058"></path><g fill="#fff"><path d="M316.8 307.2s2.8 32-63.2 56.4c0 0 51.6 2.8 67.2 38.4.4 1.6 30.4-76-4-94.8z"></path><path d="M190.4 307.2c-34 18.8-4.4 96-3.6 94.8 15.2-35.2 67.2-38.4 67.2-38.4-66.4-24.4-63.6-56.4-63.6-56.4z"></path></g><path d="M312.8 285.6c-16.8 18-36.8 29.6-59.2 29.6s-42.4-11.6-59.2-29.6c.8-2.8 2-5.6 3.2-8 16 18 35.2 30 56 30s40-11.6 56-30c1.2 2.4 2.4 5.2 3.2 8z" fill="#f9b54c"></path><path d="M362.8 224.4c-8.4 14-21.2 22.4-30.8 20.8-19.2 35.6-47.2 62-78.4 62s-59.2-26.8-78.4-62c-9.6 1.2-22.4-6.8-30.8-20.8-10-16.4-10.4-34.4-.8-40.4 2.4-1.2 4.8-2 7.6-1.6 6.4 16.4 15.2 26.4 15.2 26.4-9.2-50.8 28.4-56.4 22-105.2 0 0 23.6 52.4 91.2 15.6l-5.2 10c94.4-21.2 62.8 90 62 92.8 10.8-13.6 17.6-27.2 21.6-39.6 1.6 0 3.6.8 4.8 1.6 10.4 5.6 10 24 0 40.4z" fill="#ffd05b"></path><path d="M308 50.8c7.6-.8 20 6 20 6-34-38.8-89.6-14-89.6-14 18.8-16 35.6-14.4 35.6-14.4-79.6-12-93.2 35.6-93.2 35.6-3.6-5.6-3.6-13.6-3.2-17.6-5.6 9.6.4 28.8.4 28.8-5.6-14-25.2-11.6-25.2-11.6 16.8 2.8 19.6 13.2 19.6 13.2-42 15.6-34.8 59.2-34.8 59.2l10-12c-12.4 47.6 19.2 84.4 19.2 84.4-9.2-50.8 28.4-56.4 22-105.2 0 0 23.6 52.4 91.2 15.6l-5.2 10c95.6-21.6 62 93.2 62 93.2 34-43.2 28.8-87.6 28.8-87.6l4 16c10.8-72-61.6-99.6-61.6-99.6z" fill="#324a5e"></path></svg><svg viewBox="0 0 504.123 504.123" width="504.123" height="504.123" id="icon-money" y="4953"><circle cx="252.062" cy="252.062" r="252.062" fill="#84dbff"></circle><path d="M168.96 271.36h88.615c6.302 0 11.815 3.545 14.178 9.058 3.938 8.271-.394 18.117-9.058 21.268l-35.446 12.603c-3.545 1.182-3.938 6.302-.394 7.877l42.535 20.874c5.908 3.151 12.997 3.545 19.298 1.575l89.797-27.963c12.209-3.938 25.206 2.757 29.538 14.572 4.332 12.209-1.575 25.994-14.178 30.72l-121.305 46.08c-7.089 2.757-14.966 2.757-22.055-.394l-104.762-44.11 23.237-92.16z" fill="#ffd05b"></path><path fill="#324a5e" d="M142.966 375.335l-48.443-12.209 29.145-115.791 48.443 12.21z"></path><circle cx="123.668" cy="349.342" r="10.24" fill="#fff"></circle><path fill="#2c9984" d="M176.443 107.52h240.246v134.302H176.443z"></path><g fill="#e6e9ee"><path d="M390.302 230.006H203.225v-2.757c0-6.302-5.12-11.815-11.815-11.815h-2.757v-81.526h2.757c6.302 0 11.815-5.12 11.815-11.815v-2.757h187.471v2.757c0 6.302 5.12 11.815 11.815 11.815h2.757v81.526h-2.757c-6.302 0-11.815 5.12-11.815 11.815v2.757h-.394zm-181.564-5.514h176.049c1.182-7.483 7.089-13.391 14.572-14.572v-70.105c-7.483-1.182-13.391-7.089-14.572-14.572H208.738c-1.182 7.483-7.089 13.391-14.572 14.572v70.105c7.483 1.182 13.391 7.089 14.572 14.572z"></path><ellipse cx="296.566" cy="174.868" rx="36.628" ry="43.323"></ellipse></g><path d="M294.991 207.163v-5.514c-7.089-.788-13.391-3.938-19.298-8.665l5.514-6.695c4.332 3.938 8.665 5.908 13.391 6.695v-14.966c-5.908-1.575-10.24-3.151-12.997-5.514-2.757-2.363-3.938-5.514-3.938-10.24 0-4.332 1.575-8.271 4.726-11.028s7.089-4.332 12.209-4.726v-3.938h5.12v3.938c5.514.394 11.028 2.363 16.148 5.908l-4.726 7.089c-3.545-2.363-7.089-3.938-11.028-4.332v14.572h.394c5.908 1.575 10.24 3.151 12.997 5.514 2.757 2.363 4.332 5.908 4.332 10.24 0 4.726-1.575 8.271-4.726 11.028-3.151 2.757-7.483 4.332-12.603 4.726v5.514h-5.514v.394zm-5.514-50.412c-1.182 1.182-1.969 2.757-1.969 4.332s.394 3.151 1.575 3.938c1.182 1.182 3.151 1.969 5.908 2.757v-13.391c-2.363.395-4.333 1.182-5.514 2.364zm16.541 34.264c1.575-1.182 2.363-2.757 2.363-4.332 0-1.969-.394-3.151-1.575-4.332s-3.151-1.969-6.302-3.151v13.785c1.97 0 3.939-.788 5.514-1.97z" fill="#2c9984"></path><g fill="#e6e9ee"><circle cx="227.249" cy="174.868" r="9.058"></circle><circle cx="366.277" cy="174.868" r="9.058"></circle></g></svg><svg viewBox="0 0 481.135 481.135" width="481.135" height="481.135" id="icon-order" y="5458"><path d="M285.248 354.109c-12.2-12.1-27.5-12.1-39.7 0-9.3 9.2-18.6 18.4-27.7 27.8-2.5 2.6-4.6 3.1-7.7 1.4-6-3.3-12.4-5.9-18.2-9.5-26.9-16.9-49.5-38.7-69.5-63.3-9.9-12.2-18.8-25.2-24.9-39.9-1.2-3-1.1-4.9 1.4-7.3 9.3-9 18.4-18.2 27.5-27.4 12.7-12.8 12.7-27.8-.1-40.7-7.2-7.3-14.5-14.6-21.8-21.8-7.5-7.5-14.9-15-22.5-22.5-12.3-12-27.5-12.1-39.8 0-9.3 9.2-18.4 18.7-27.8 27.7-8.8 8.4-13.3 18.6-14.2 30.6-1.4 19.4 3.3 37.8 10 55.7 13.8 37 34.7 69.8 60 100 34.2 40.8 75.2 73 123.1 96.3 21.5 10.5 43.9 18.5 68.2 19.8 16.7.9 31.3-3.3 42.9-16.3 8-8.9 16.9-17 25.4-25.5 12.5-12.6 12.6-27.9.2-40.4-15-15-29.9-29.8-44.8-44.7z"></path><path d="M436.748 44.409c-59.2-59.2-155.1-59.2-214.3 0-57 57-59.1 148-6.4 207.5l1.5 1.3c-5.7 12.4-15.6 27.6-31.2 35.3-5.2 2.5-4 10.2 1.7 11.1 17.1 2.7 41.6-.3 64.4-17.6l.3.3c58.1 34.2 134 26.3 183.9-23.6 59.3-59.2 59.3-155.1.1-214.3zm-100.7 13.6c13.6.1 24.5 11.2 24.4 25-.1 13.7-11.2 24.8-24.5 24.7-13.8-.1-24.9-11.4-24.8-25.1s11.2-24.7 24.9-24.6zm35.1 166.5c-.5 2.1-1.9 4.3-3.4 5.9-9 9.1-19.7 14.5-32.6 14.7-6 .1-12.1-.1-18-1-9.9-1.4-22.4-13.6-20.6-26.7 1.2-8.9 2.6-17.8 4.1-26.7 2.6-15.4 5.4-30.9 8.1-46.3.2-1 .2-2 .2-3 0-6.5-2-8.7-8.4-9.6-2.7-.4-5.6-.6-8.1-1.5-3.2-1.1-4.6-3.6-4.3-6.2.3-2.7 2-4.4 5.5-5.1 1.8-.4 3.7-.4 5.6-.4h46.8c5.8 0 9.2 2.7 9.4 8.5.1 4.8-.7 9.6-1.6 14.4-3.1 17.6-6.4 35.2-9.6 52.9-1.1 5.8-2.3 11.7-2.9 17.5-.3 2.8.1 5.8.8 8.5.9 3.7 3.7 5.7 7.4 5.3 3.1-.4 6.2-1.5 9.2-2.6 2.4-.9 4.5-2.6 7-3.5 3.3-1.3 6.3 1.2 5.4 4.9z"></path></svg><svg viewBox="0 0 349.667 349.667" width="349.667" height="349.667" id="icon-spec" y="5940"><path d="M174.833 197.204c24.125 0 80.846-29.034 80.846-98.603C255.68 44.145 248.329 0 174.833 0c-73.495 0-80.846 44.145-80.846 98.602 0 69.568 56.721 98.602 80.846 98.602zM106.07 82.146c5.679-10.983 17.963-23.675 44.381-23.112 0 0 15.746 38.194 93.05 21.042.312 6.101.41 12.326.41 18.526 0 34.005-15.015 55.075-27.612 66.762-15.872 14.727-33.494 20.072-41.466 20.072-7.972 0-25.594-5.345-41.466-20.072-12.597-11.687-27.612-32.757-27.612-66.762.001-5.501.081-11.021.315-16.456z"></path><path d="M324.926 298.327c-4.127-25.665-12.625-58.724-29.668-70.472-11.638-8.024-52.243-29.718-69.582-38.982l-.3-.16a5.666 5.666 0 0 0-6.17.541c-9.083 7.131-19.033 11.937-29.573 14.284a5.669 5.669 0 0 0-4.067 3.521l-10.733 28.291-10.733-28.291a5.669 5.669 0 0 0-4.067-3.521c-10.54-2.347-20.49-7.153-29.573-14.284a5.664 5.664 0 0 0-6.17-.541c-17.133 9.155-58.235 31.291-69.831 39.107-19.619 13.217-28.198 61.052-29.718 70.507a5.674 5.674 0 0 0 .253 2.792c.702 1.982 18.708 48.548 149.839 48.548s149.137-46.566 149.839-48.548a5.664 5.664 0 0 0 .254-2.792zM264.5 282.666l-25.667 8-25.667-8v-13.81H264.5v13.81z"></path></svg><svg viewBox="0 0 508 508" width="508" height="508" id="icon-true" y="6290"><circle cx="254" cy="254" r="254" fill="#324a5e"></circle><path d="M179.6 138.8c8.4-2.4 17.2 2.4 20 10.4l16.4 50c.4.8 1.2 1.6 2.4 1.2.8-.4 1.6-1.2 1.2-2.4l-26.8-80c-2.4-8 .4-16.8 8-20.8 9.6-4.8 20.4 0 23.6 9.6l24 72.8c.4.8 1.2 1.6 2.4 1.2.8-.4 1.6-1.2 1.2-2.4l-31.2-95.2c-2.8-9.2 2-18.8 10.8-22h.4c.4 0 1.2-.4 1.6-.4 8.4-1.6 16.4 4 19.2 12.4l32.4 99.6c.4.8 1.2 1.6 2.4 1.2.8-.4 1.6-1.2 1.2-2.4L260 81.2c-3.2-9.6 2.4-19.6 12-22.4 8.8-2.4 18.4 2.4 21.2 11.2L328 172.8c2-20 7.6-38.4 18.4-50 5.6-6 16.4-2.8 20.8 4 2 2.8 3.6 7.6 2.4 13.2 0 0-12.4 21.6 2 56.8 14.4 34.8-15.2 89.2-15.2 89.2-9.6 21.6 18.8 101.2 18.8 101.2l-86.4 24.4c-13.2-37.2-45.6-86.8-45.6-86.8l-13.6-21.6c-15.6-24.8-28.4-51.6-38-79.2l-22.8-65.2c-3.2-8 1.6-17.6 10.8-20z" fill="#f9b54c"></path><path d="M292 505.2c50.8-7.6 96.4-30 132.4-62.8L385.2 338l-134.8 56.4L292 505.2z" fill="#e6e9ee"></path><path d="M309.2 135.6c-8.4-2-17.2 2.8-19.6 11.2l-15.2 50.4c-.4.8-1.2 1.6-2.4 1.2-.8-.4-1.6-1.2-1.2-2.4l24.4-80.8c2.4-8-.8-16.8-8.4-20.4-9.6-4.4-20.4.4-23.2 10L241.2 178c-.4.8-1.2 1.6-2.4 1.2-.8-.4-1.2-1.2-.8-2l28.8-95.6c2.8-9.2-2.4-18.8-11.6-21.6h-.4c-.4 0-1.2-.4-1.6-.4-8.4-1.2-16.4 4.8-18.8 12.8l-30 100.4c-.4.8-1.2 1.6-2.4 1.2-.8-.4-1.6-1.2-1.2-2.4l26.8-91.2c2.8-9.6-2.8-19.6-12.4-22C206 56 196.8 61.2 194 70l-32 104c-2.4-20-8.4-38.4-19.6-49.6-5.6-6-16.4-2-20.8 4.8-2 3.2-3.2 8-2 13.2 0 0 12.8 21.2-.8 56.8-13.6 35.2 17.6 88.8 17.6 88.8 10 21.2-16 102-16 102l86.8 22.4c12.4-37.6 43.2-88 43.2-88l13.2-22c15.2-25.2 27.2-52 36-80l20.8-65.6c3.2-9.6-2-18.8-11.2-21.2z" fill="#ffd05b"></path><path d="M75.6 434.8c35.2 34.8 80.4 59.2 130.8 68.8l38.4-110.4L108.4 340l-32.8 94.8z" fill="#ff7058"></path></svg><svg viewBox="0 0 490.4 490.4" width="490.4" height="490.4" id="interface" y="6798"><path d="M245.2 490.4c135.2 0 245.2-110 245.2-245.2S380.4 0 245.2 0 0 110 0 245.2s110 245.2 245.2 245.2zm0-465.9c121.7 0 220.7 99 220.7 220.7s-99 220.7-220.7 220.7-220.7-99-220.7-220.7 99-220.7 220.7-220.7z"></path><path d="M206.5 349.6c2.3 2.3 5.4 3.6 8.7 3.6 3.2 0 6.3-1.3 8.6-3.6l147.5-146.7c2.3-2.3 3.6-5.4 3.6-8.7 0-3.2-1.3-6.4-3.6-8.7l-44.6-44.8c-4.8-4.8-12.5-4.8-17.3-.1l-94 93.5-34.2-34.4c-2.3-2.3-5.4-3.6-8.7-3.6-3.2 0-6.3 1.3-8.6 3.6l-44.8 44.6c-2.3 2.3-3.6 5.4-3.6 8.7 0 3.2 1.3 6.4 3.6 8.7l87.4 87.9zm-34-123.9l34.3 34.5c4.8 4.8 12.5 4.8 17.3.1l94-93.5 27.3 27.4-130.1 129.4-70.2-70.6 27.4-27.3z"></path></svg><svg viewBox="0 0 490.2 490.2" width="490.2" height="490.2" id="like" y="7289"><path d="M490.1 234.464c0-37.6-30.6-68.3-68.3-68.3H316.2v-76.1c0-32.2-9.4-55.4-28-69-29.4-21.6-69.8-9.3-71.5-8.7-5.1 1.6-8.6 6.3-8.6 11.7v85.5c0 67.3-78.1 90.2-81.4 91.2-1 .3-1.9.6-2.7 1.1-5.8-11.6-17.8-19.6-31.6-19.6H35.2c-19.4 0-35.2 15.8-35.2 35.2v207.9c0 19.4 15.8 35.2 35.2 35.2h33.1c6.8 0 12.3-5.5 12.3-12.3s-5.6-12.2-12.3-12.2H35.2c-5.9 0-10.7-4.8-10.7-10.7v-207.9c0-5.9 4.8-10.7 10.7-10.7h57.3c5.9 0 10.7 4.8 10.7 10.7v196.1c0 37.6 30.6 68.3 68.3 68.3h209.2c46.4 0 75.9-24.3 81.1-66.3l28.2-177c.1-.6.2-1.3.2-1.9v-2.2h-.1zm-24.5 1.1l-28.1 176.5c-3.7 30-22.8 45.3-56.8 45.3H171.5c-24.1 0-43.8-19.6-43.8-43.8v-189.1c1.8.4 3.7.3 5.6-.2 4.1-1.1 99.3-28.7 99.3-114.8v-75.6c10.4-1.6 28.2-2.5 41.1 6.9 11.9 8.8 18 25.3 18 49.3v88.4c0 6.8 5.5 12.3 12.3 12.3h117.9c24.1 0 43.8 19.6 43.8 43.8v1h-.1z"></path></svg><svg viewBox="0 0 451 451" width="451" height="451" id="magnifying-glass" y="7780"><path d="M447.05 428l-109.6-109.6c29.4-33.8 47.2-77.9 47.2-126.1C384.65 86.2 298.35 0 192.35 0 86.25 0 .05 86.3.05 192.3s86.3 192.3 192.3 192.3c48.2 0 92.3-17.8 126.1-47.2L428.05 447c2.6 2.6 6.1 4 9.5 4s6.9-1.3 9.5-4c5.2-5.2 5.2-13.8 0-19zM26.95 192.3c0-91.2 74.2-165.3 165.3-165.3 91.2 0 165.3 74.2 165.3 165.3s-74.1 165.4-165.3 165.4c-91.1 0-165.3-74.2-165.3-165.4z"></path></svg><svg viewBox="0 0 483.3 483.3" width="483.3" height="483.3" id="mail" y="8231"><path d="M424.3 57.75H59.1c-32.6 0-59.1 26.5-59.1 59.1v249.6c0 32.6 26.5 59.1 59.1 59.1h365.1c32.6 0 59.1-26.5 59.1-59.1v-249.5c.1-32.6-26.4-59.2-59-59.2zm32.1 308.7c0 17.7-14.4 32.1-32.1 32.1H59.1c-17.7 0-32.1-14.4-32.1-32.1v-249.5c0-17.7 14.4-32.1 32.1-32.1h365.1c17.7 0 32.1 14.4 32.1 32.1v249.5h.1z"></path><path d="M304.8 238.55l118.2-106c5.5-5 6-13.5 1-19.1-5-5.5-13.5-6-19.1-1l-163 146.3-31.8-28.4c-.1-.1-.2-.2-.2-.3-.7-.7-1.4-1.3-2.2-1.9L78.3 112.35c-5.6-5-14.1-4.5-19.1 1.1-5 5.6-4.5 14.1 1.1 19.1l119.6 106.9-119.1 111.5c-5.4 5.1-5.7 13.6-.6 19.1 2.7 2.8 6.3 4.3 9.9 4.3 3.3 0 6.6-1.2 9.2-3.6l120.9-113.1 32.8 29.3c2.6 2.3 5.8 3.4 9 3.4s6.5-1.2 9-3.5l33.7-30.2 120.2 114.2c2.6 2.5 6 3.7 9.3 3.7 3.6 0 7.1-1.4 9.8-4.2 5.1-5.4 4.9-14-.5-19.1l-118.7-112.7z"></path></svg><svg width="459" height="459" viewBox="0 0 459 459" id="menu" y="8715"><path d="M0 382.5h459v-51H0v51zM0 255h459v-51H0v51zM0 76.5v51h459v-51H0z"></path></svg><svg viewBox="0 0 473.806 473.806" width="473.806" height="473.806" id="phone-call" y="9174"><path d="M374.456 293.506c-9.7-10.1-21.4-15.5-33.8-15.5-12.3 0-24.1 5.3-34.2 15.4l-31.6 31.5c-2.6-1.4-5.2-2.7-7.7-4-3.6-1.8-7-3.5-9.9-5.3-29.6-18.8-56.5-43.3-82.3-75-12.5-15.8-20.9-29.1-27-42.6 8.2-7.5 15.8-15.3 23.2-22.8 2.8-2.8 5.6-5.7 8.4-8.5 21-21 21-48.2 0-69.2l-27.3-27.3c-3.1-3.1-6.3-6.3-9.3-9.5-6-6.2-12.3-12.6-18.8-18.6-9.7-9.6-21.3-14.7-33.5-14.7s-24 5.1-34 14.7l-.2.2-34 34.3c-12.8 12.8-20.1 28.4-21.7 46.5-2.4 29.2 6.2 56.4 12.8 74.2 16.2 43.7 40.4 84.2 76.5 127.6 43.8 52.3 96.5 93.6 156.7 122.7 23 10.9 53.7 23.8 88 26 2.1.1 4.3.2 6.3.2 23.1 0 42.5-8.3 57.7-24.8.1-.2.3-.3.4-.5 5.2-6.3 11.2-12 17.5-18.1 4.3-4.1 8.7-8.4 13-12.9 9.9-10.3 15.1-22.3 15.1-34.6 0-12.4-5.3-24.3-15.4-34.3l-54.9-55.1zm35.8 105.3c-.1 0-.1.1 0 0-3.9 4.2-7.9 8-12.2 12.2-6.5 6.2-13.1 12.7-19.3 20-10.1 10.8-22 15.9-37.6 15.9-1.5 0-3.1 0-4.6-.1-29.7-1.9-57.3-13.5-78-23.4-56.6-27.4-106.3-66.3-147.6-115.6-34.1-41.1-56.9-79.1-72-119.9-9.3-24.9-12.7-44.3-11.2-62.6 1-11.7 5.5-21.4 13.8-29.7l34.1-34.1c4.9-4.6 10.1-7.1 15.2-7.1 6.3 0 11.4 3.8 14.6 7l.3.3c6.1 5.7 11.9 11.6 18 17.9 3.1 3.2 6.3 6.4 9.5 9.7l27.3 27.3c10.6 10.6 10.6 20.4 0 31-2.9 2.9-5.7 5.8-8.6 8.6-8.4 8.6-16.4 16.6-25.1 24.4-.2.2-.4.3-.5.5-8.6 8.6-7 17-5.2 22.7l.3.9c7.1 17.2 17.1 33.4 32.3 52.7l.1.1c27.6 34 56.7 60.5 88.8 80.8 4.1 2.6 8.3 4.7 12.3 6.7 3.6 1.8 7 3.5 9.9 5.3.4.2.8.5 1.2.7 3.4 1.7 6.6 2.5 9.9 2.5 8.3 0 13.5-5.2 15.2-6.9l34.2-34.2c3.4-3.4 8.8-7.5 15.1-7.5 6.2 0 11.3 3.9 14.4 7.3l.2.2 55.1 55.1c10.3 10.2 10.3 20.7.1 31.3zm-154.2-286.1c26.2 4.4 50 16.8 69 35.8s31.3 42.8 35.8 69c1.1 6.6 6.8 11.2 13.3 11.2.8 0 1.5-.1 2.3-.2 7.4-1.2 12.3-8.2 11.1-15.6-5.4-31.7-20.4-60.6-43.3-83.5s-51.8-37.9-83.5-43.3c-7.4-1.2-14.3 3.7-15.6 11s3.5 14.4 10.9 15.6zm217.2 96.3c-8.9-52.2-33.5-99.7-71.3-137.5s-85.3-62.4-137.5-71.3c-7.3-1.3-14.2 3.7-15.5 11-1.2 7.4 3.7 14.3 11.1 15.6 46.6 7.9 89.1 30 122.9 63.7 33.8 33.8 55.8 76.3 63.7 122.9 1.1 6.6 6.8 11.2 13.3 11.2.8 0 1.5-.1 2.3-.2 7.3-1.1 12.3-8.1 11-15.4z"></path></svg><svg viewBox="0 0 477 477" width="477" height="477" id="placeholder" y="9648"><path d="M238.4 0C133 0 47.2 85.8 47.2 191.2c0 12 1.1 24.1 3.4 35.9.1.7.5 2.8 1.3 6.4 2.9 12.9 7.2 25.6 12.8 37.7 20.6 48.5 65.9 123 165.3 202.8 2.5 2 5.5 3 8.5 3s6-1 8.5-3c99.3-79.8 144.7-154.3 165.3-202.8 5.6-12.1 9.9-24.7 12.8-37.7.8-3.6 1.2-5.7 1.3-6.4 2.2-11.8 3.4-23.9 3.4-35.9C429.6 85.8 343.8 0 238.4 0zm161.2 222.4c0 .2-.1.4-.1.6-.1.5-.4 2-.9 4.3v.2c-2.5 11.2-6.2 22.1-11.1 32.6-.1.1-.1.3-.2.4-18.7 44.3-59.7 111.9-148.9 185.6-89.2-73.7-130.2-141.3-148.9-185.6-.1-.1-.1-.3-.2-.4-4.8-10.4-8.5-21.4-11.1-32.6v-.2c-.6-2.3-.8-3.8-.9-4.3 0-.2-.1-.4-.1-.7-2-10.3-3-20.7-3-31.2 0-90.5 73.7-164.2 164.2-164.2s164.2 73.7 164.2 164.2c0 10.6-1 21.1-3 31.3z"></path><path d="M238.4 71.9c-66.9 0-121.4 54.5-121.4 121.4s54.5 121.4 121.4 121.4 121.4-54.5 121.4-121.4S305.3 71.9 238.4 71.9zm0 215.8c-52.1 0-94.4-42.4-94.4-94.4s42.4-94.4 94.4-94.4 94.4 42.4 94.4 94.4-42.3 94.4-94.4 94.4z"></path></svg><svg viewBox="0 0 481.6 481.6" width="481.6" height="481.6" id="share" y="10125"><path d="M381.6 309.4c-27.7 0-52.4 13.2-68.2 33.6l-132.3-73.9c3.1-8.9 4.8-18.5 4.8-28.4 0-10-1.7-19.5-4.9-28.5l132.2-73.8c15.7 20.5 40.5 33.8 68.3 33.8 47.4 0 86.1-38.6 86.1-86.1S429 0 381.5 0s-86.1 38.6-86.1 86.1c0 10 1.7 19.6 4.9 28.5l-132.1 73.8c-15.7-20.6-40.5-33.8-68.3-33.8-47.4 0-86.1 38.6-86.1 86.1s38.7 86.1 86.2 86.1c27.8 0 52.6-13.3 68.4-33.9l132.2 73.9c-3.2 9-5 18.7-5 28.7 0 47.4 38.6 86.1 86.1 86.1s86.1-38.6 86.1-86.1-38.7-86.1-86.2-86.1zm0-282.3c32.6 0 59.1 26.5 59.1 59.1s-26.5 59.1-59.1 59.1-59.1-26.5-59.1-59.1 26.6-59.1 59.1-59.1zM100 299.8c-32.6 0-59.1-26.5-59.1-59.1s26.5-59.1 59.1-59.1 59.1 26.5 59.1 59.1-26.6 59.1-59.1 59.1zm281.6 154.7c-32.6 0-59.1-26.5-59.1-59.1s26.5-59.1 59.1-59.1 59.1 26.5 59.1 59.1-26.5 59.1-59.1 59.1z"></path></svg><svg viewBox="0 0 512 512" width="512" height="512" id="soc-facebook" y="10607"><path d="M134.941 272.691h56.123v231.051a8.256 8.256 0 0 0 8.258 8.258h95.159a8.256 8.256 0 0 0 8.258-8.258V273.78h64.519a8.26 8.26 0 0 0 8.204-7.315l9.799-85.061a8.259 8.259 0 0 0-8.202-9.203h-74.316V118.88c0-16.073 8.654-24.224 25.726-24.224h48.59a8.258 8.258 0 0 0 8.258-8.258V8.319a8.256 8.256 0 0 0-8.258-8.258h-66.965A65.863 65.863 0 0 0 307.027 0c-11.619 0-52.006 2.281-83.909 31.63-35.348 32.524-30.434 71.465-29.26 78.217v62.352H134.94a8.256 8.256 0 0 0-8.258 8.258v83.975a8.26 8.26 0 0 0 8.259 8.259z" fill="#385c8e"></path></svg><svg viewBox="0 0 291.319 291.319" width="291.319" height="291.319" id="soc-instagram" y="11119"><path d="M145.659 0c80.44 0 145.66 65.219 145.66 145.66S226.1 291.319 145.66 291.319 0 226.1 0 145.66 65.21 0 145.659 0z" fill="#3f729b"></path><path d="M195.93 63.708H95.38c-17.47 0-31.672 14.211-31.672 31.672v100.56c0 17.47 14.211 31.672 31.672 31.672h100.56c17.47 0 31.672-14.211 31.672-31.672V95.38c-.001-17.461-14.212-31.672-31.682-31.672zm9.978 18.326l3.587-.009v27.202l-27.402.091-.091-27.202 23.906-.082zm-60.248 36.205c22.732 0 27.42 21.339 27.42 27.429 0 15.103-12.308 27.411-27.42 27.411-15.121 0-27.42-12.308-27.42-27.411-.01-6.09 4.688-27.429 27.42-27.429zm63.99 75.716c0 8.658-7.037 15.704-15.713 15.704H97.073c-8.667 0-15.713-7.037-15.713-15.704v-66.539h22.759c-2.112 5.198-3.305 12.299-3.305 18.253 0 24.708 20.101 44.818 44.818 44.818s44.808-20.11 44.808-44.818c0-5.954-1.193-13.055-3.296-18.253h22.486v66.539h.02z" fill="#fff"></path></svg><svg viewBox="0 0 410.155 410.155" width="410.155" height="410.155" id="soc-twitter" y="11411"><path d="M403.632 74.18a162.414 162.414 0 0 1-28.28 9.537 88.177 88.177 0 0 0 23.275-37.067c1.295-4.051-3.105-7.554-6.763-5.385a163.188 163.188 0 0 1-43.235 17.862 11.02 11.02 0 0 1-2.702.336c-2.766 0-5.455-1.027-7.57-2.891-16.156-14.239-36.935-22.081-58.508-22.081-9.335 0-18.76 1.455-28.014 4.325-28.672 8.893-50.795 32.544-57.736 61.724-2.604 10.945-3.309 21.9-2.097 32.56a3.166 3.166 0 0 1-.797 2.481 3.278 3.278 0 0 1-2.753 1.091c-62.762-5.831-119.358-36.068-159.363-85.14-2.04-2.503-5.952-2.196-7.578.593-7.834 13.44-11.974 28.812-11.974 44.454 0 23.972 9.631 46.563 26.36 63.032a79.24 79.24 0 0 1-20.169-7.808c-3.06-1.7-6.825.485-6.868 3.985-.438 35.612 20.412 67.3 51.646 81.569a79.567 79.567 0 0 1-16.786-1.399c-3.446-.658-6.341 2.611-5.271 5.952 10.138 31.651 37.39 54.981 70.002 60.278-27.066 18.169-58.585 27.753-91.39 27.753l-10.227-.006c-3.151 0-5.816 2.054-6.619 5.106-.791 3.006.666 6.177 3.353 7.74 36.966 21.513 79.131 32.883 121.955 32.883 37.485 0 72.549-7.439 104.219-22.109 29.033-13.449 54.689-32.674 76.255-57.141 20.09-22.792 35.8-49.103 46.692-78.201 10.383-27.737 15.871-57.333 15.871-85.589v-1.346c-.001-4.537 2.051-8.806 5.631-11.712a174.776 174.776 0 0 0 35.16-38.591c2.573-3.849-1.485-8.673-5.719-6.795z" fill="#76a9ea"></path></svg><svg viewBox="0 0 512 512" width="512" height="512" id="soc-vk" y="11822"><path d="M440.649 295.361c16.984 16.582 34.909 32.182 50.142 50.436 6.729 8.112 13.099 16.482 17.973 25.896 6.906 13.382.651 28.108-11.348 28.907l-74.59-.034c-19.238 1.596-34.585-6.148-47.489-19.302-10.327-10.519-19.891-21.714-29.821-32.588-4.071-4.444-8.332-8.626-13.422-11.932-10.182-6.609-19.021-4.586-24.84 6.034-5.926 10.802-7.271 22.762-7.853 34.8-.799 17.564-6.108 22.182-23.751 22.986-37.705 1.778-73.489-3.926-106.732-22.947-29.308-16.768-52.034-40.441-71.816-67.24-38.513-52.183-68.008-109.525-94.516-168.473-5.967-13.281-1.603-20.41 13.051-20.663 24.333-.473 48.663-.439 73.025-.034 9.89.145 16.437 5.817 20.256 15.16 13.165 32.371 29.274 63.169 49.494 91.716 5.385 7.6 10.876 15.201 18.694 20.55 8.65 5.923 15.236 3.96 19.305-5.676 2.582-6.11 3.713-12.691 4.295-19.234 1.928-22.513 2.182-44.988-1.199-67.422-2.076-14.001-9.962-23.065-23.933-25.714-7.129-1.351-6.068-4.004-2.616-8.073 5.995-7.018 11.634-11.387 22.875-11.387h84.298c13.271 2.619 16.218 8.581 18.035 21.934l.072 93.637c-.145 5.169 2.582 20.51 11.893 23.931 7.452 2.436 12.364-3.526 16.836-8.251 20.183-21.421 34.588-46.737 47.457-72.951 5.711-11.527 10.622-23.497 15.381-35.458 3.526-8.875 9.059-13.242 19.056-13.049l81.132.072c2.406 0 4.84.035 7.17.434 13.671 2.33 17.418 8.211 13.195 21.561-6.653 20.945-19.598 38.4-32.255 55.935-13.53 18.721-28.001 36.802-41.418 55.634-12.328 17.2-11.349 25.868 3.964 40.805z" fill="#436eab"></path></svg><svg viewBox="0 0 490.727 490.727" width="490.727" height="490.727" id="star" y="12334"><path d="M453.443 160.214l-119.7-8.6c-2.5-.2-4.7-1.7-5.6-4.1l-45.6-111c-6.3-15.3-20.5-24.8-37.1-24.8s-30.7 9.5-37.1 24.9l-45.7 111.1c-1 2.3-3.1 3.9-5.6 4.1l-119.5 8.6c-16.2.9-30 11.5-35.3 27.1-5.4 15.8-.9 32.4 11.9 43.3l92.5 76.4c1.9 1.6 2.8 4.2 2.2 6.6l-28.2 115.4c-3.3 12-1 24.4 6.3 34.1 7.5 9.8 19.2 15.7 31.5 15.7 7.6 0 15-2.3 21.1-6.4l101.1-62.9c2.1-1.3 4.8-1.3 6.9 0l102.1 62.7c6.4 4.3 13.8 6.6 21.3 6.6 11.5 0 22.9-5.5 30.3-14.8 7.7-9.6 10.5-22.1 7.7-34.6l-28.3-115.7c-.6-2.5.3-5.1 2.2-6.7l93.9-76.6c12.6-10.8 17.1-27.4 11.8-43.2-5.2-15.6-19.1-26.3-35.1-27.2zm7.7 51.5l-93.7 76.5c-9.2 7.5-13.4 19.9-10.5 31.5l28.3 115.5c1.5 6.8-1.2 11.5-3 13.7-2.8 3.5-7 5.7-11.2 5.7-2.6 0-5.2-.8-8-2.7l-102.5-63c-4.9-3-10.5-4.6-16.3-4.6s-11.5 1.6-16.4 4.7l-101.5 63.1c-6.5 4.3-15.2 2.4-19.8-3.6-1.9-2.5-3.9-6.8-2.1-13.1l28.3-115.8c2.8-11.5-1.3-23.8-10.4-31.3l-92.3-76.3c-7.3-6.3-5.3-14.4-4.5-16.7s4.1-10 13.7-10.5l119.7-8.6c11.8-.9 22-8.2 26.5-19.2l45.7-111.1c3.7-9 12-9.7 14.4-9.7 2.4 0 10.7.7 14.4 9.7l45.7 111.1c4.5 11 14.7 18.3 26.5 19.2l119.9 8.7c9.4.5 12.7 8.2 13.5 10.5.6 2.1 2.6 10.2-4.4 16.3z"></path></svg></svg>